<?xml version="1.0" encoding="utf-8"?>
<!-- Generator: Adobe Illustrator 25.0.0, SVG Export Plug-In . SVG Version: 6.00 Build 0)  -->
<svg version="1.1" id="Layer_1" xmlns="http://www.w3.org/2000/svg" xmlns:xlink="http://www.w3.org/1999/xlink" x="0px" y="0px"
	 viewBox="0 0 991 91" style="enable-background:new 0 0 991 91;" xml:space="preserve">
<style type="text/css">
	.st0{opacity:0.999;enable-background:new    ;}
	.st1{opacity:0.1;}
	.st2{fill:#FFFFFF;}
</style>
<g transform="matrix(1, 0, 0, 1, 0, 0)">
	<g id="Union_138-2" class="st0">
		<g class="st1">
			<path d="M-2,89.5v-64h446v0c4.9-0.2,9.7-1.5,14.1-3.7c2.1-1.1,4.1-2.4,5.9-3.9c1.7-1.4,3.2-2.9,4.6-4.6
				C479.9-1.8,501.2-5,516.2,6.2c2.7,2,5,4.3,7,7c1.4,1.7,3,3.2,4.7,4.6c1.8,1.5,3.8,2.8,5.9,3.9c4.4,2.3,9.2,3.5,14.1,3.7v0H993v64
				H-2z"/>
		</g>
		<g>
			<path class="st2" d="M-2,90.5v-64h446v0c4.9-0.2,9.7-1.5,14.1-3.7c2.1-1.1,4.1-2.4,5.9-3.9c1.7-1.4,3.2-2.9,4.6-4.6
				C479.9-0.8,501.2-4,516.2,7.2c2.7,2,5,4.3,7,7c1.4,1.7,3,3.2,4.7,4.6c1.8,1.5,3.8,2.8,5.9,3.9c4.4,2.3,9.2,3.5,14.1,3.7v0H993v64
				H-2z"/>
		</g>
	</g>
</g>
</svg>
