<?xml version="1.0" encoding="utf-8"?><svg version="1.1" id="Layer_1" xmlns="http://www.w3.org/2000/svg" xmlns:xlink="http://www.w3.org/1999/xlink" x="0px" y="0px" viewBox="0 0 122.88 35.24" style="enable-background:new 0 0 122.88 35.24" xml:space="preserve"><style type="text/css"><![CDATA[
	.st0{fill:#F07A25;}
	.st1{fill-rule:evenodd;clip-rule:evenodd;fill:#66686C;}
	.st2{fill:#0C8D48;}
]]></style><g><path class="st0" d="M111.45,19.26l-5.17,4.81l-0.17-0.13c0.59-2.2,1.18-4.39,1.78-6.58c1.5-5.45,3-10.89,4.51-16.34 c0-0.02,0-0.04,0-0.05c0-0.27,0.14-0.52,0.38-0.65c0.36-0.06,0.35,0.35,0.48,0.58c0.77,1.42,1.35,2.93,2.25,4.28 c0.85,2.06,1.84,4.11,2.91,6.06c0.13,0.2,0.21,0.43,0.21,0.67c0,0.41-0.21,0.8-0.56,1.02C115.82,15.02,113.64,17.15,111.45,19.26 L111.45,19.26z"/><path class="st2" d="M111.45,19.26c2.2-2.11,4.38-4.24,6.61-6.32c0.35-0.22,0.56-0.61,0.56-1.02c0-0.24-0.07-0.47-0.21-0.67 c-1.08-1.95-2.06-4-2.91-6.06l1.54-5.17c0.64,1.23,1.17,2.24,1.68,3.26c1.29,2.57,2.55,5.16,3.89,7.71 c0.18,0.25,0.27,0.55,0.27,0.86c0,0.51-0.26,0.99-0.7,1.26c-3.66,3.39-7.25,6.86-10.86,10.3c-0.23,0.3-0.54,0.53-0.9,0.65 C110.88,22.49,111.23,20.88,111.45,19.26L111.45,19.26L111.45,19.26z"/><path class="st1" d="M30.37,12.17c0.76,0.35,1.25,1.11,1.25,1.94c0,0.34-0.08,0.68-0.24,0.98c-0.6,1.95-1.09,3.93-1.63,5.89 c-0.15,1.86-1.71,3.29-3.57,3.29c-0.21,0-0.42-0.02-0.63-0.05c-8.27,0-16.53,0.01-24.8,0.02c-0.65,0-0.89-0.06-0.68-0.79 C2.2,15.9,4.3,8.35,6.39,0.8C6.44,0.35,6.82,0,7.27,0c0.04,0,0.09,0,0.13,0.01c8.51,0.02,17.03,0.01,25.54,0.03 C33.06,0.02,33.18,0,33.3,0c0.95,0,1.71,0.77,1.71,1.71c0,0.24-0.05,0.47-0.15,0.69c-0.64,2.52-1.34,5.02-2.07,7.52 C32.4,11.02,31.5,11.86,30.37,12.17L30.37,12.17z M1.22,28.8h0.97l-0.9,3.76c-0.13,0.56-0.11,0.98,0.08,1.26 c0.18,0.28,0.53,0.42,1.03,0.42c0.5,0,0.9-0.14,1.22-0.42c0.32-0.28,0.55-0.7,0.68-1.26l0.9-3.76h0.98l-0.92,3.85 c-0.2,0.84-0.56,1.46-1.07,1.88S3,35.15,2.17,35.15c-0.83,0-1.4-0.21-1.71-0.62c-0.31-0.41-0.36-1.04-0.16-1.88L1.22,28.8 L1.22,28.8z M50.48,9.77c2.78,0,5.56-0.05,8.34,0.03C58.88,9.8,58.94,9.81,59,9.81c0.7,0,1.27-0.54,1.32-1.23 c0.65-2.48,1.35-4.95,1.96-7.44C62.3,0.5,62.82,0,63.45,0c0.09,0,0.17,0.01,0.26,0.03c0.46,0.03,0.92,0.05,1.39,0.05 c0.45,0,0.91-0.02,1.36-0.05c0.74-0.04,0.91,0.18,0.7,0.91c-1.05,3.72-2.05,7.46-3.07,11.18c-0.98,3.59-1.98,7.18-2.93,10.78 c-0.02,0.75-0.63,1.35-1.38,1.35c-0.11,0-0.22-0.01-0.33-0.04c-0.46-0.04-0.92-0.06-1.38-0.06c-0.42,0-0.84,0.02-1.26,0.05 c-0.71,0.03-0.82-0.2-0.63-0.87c0.76-2.6,1.44-5.21,2.19-7.82c0.22-0.76,0.12-1.07-0.78-1.06c-5.66,0.04-11.33,0.04-16.99,0.01 c-0.06-0.01-0.12-0.01-0.18-0.01c-0.62,0-1.13,0.48-1.16,1.1c-0.66,2.62-1.43,5.22-2.12,7.83c-0.04,0.47-0.44,0.84-0.92,0.84 c-0.06,0-0.12-0.01-0.18-0.02c-0.48-0.03-0.98-0.04-1.46-0.04c-0.5,0-1,0.02-1.49,0.05c-1.03,0.07-0.86-0.46-0.68-1.1 c1.11-4.03,2.22-8.07,3.32-12.1c0.93-3.39,1.86-6.78,2.77-10.17c0.03-0.46,0.41-0.82,0.87-0.82c0.04,0,0.09,0,0.13,0.01 c1.05,0.05,2.11,0.05,3.16,0c0.73-0.03,0.81,0.24,0.63,0.88c-0.75,2.67-1.44,5.36-2.21,8.03c-0.21,0.71-0.03,0.85,0.64,0.84 C44.64,9.75,47.56,9.77,50.48,9.77L50.48,9.77z M73,0.11c0.35,0,0.7,0,1.05,0c1.4,0,1.41,0,1.05,1.29 c-1.96,7.1-3.92,14.21-5.89,21.31c-0.44,1.59-0.46,1.59-2.09,1.59c-0.77,0-1.55-0.02-2.32,0.01c-0.69,0.03-0.83-0.2-0.64-0.88 c1.87-6.66,3.71-13.33,5.55-20c0.23-0.7,0.42-1.41,0.56-2.13c0-0.02,0-0.03,0-0.05c0-0.67,0.54-1.2,1.21-1.2 c0.12,0,0.25,0.02,0.36,0.06c0.21,0.02,0.43,0.02,0.65,0.02C72.65,0.12,72.83,0.12,73,0.11L73,0.11L73,0.11z M100.08,13.09 c-0.81,0.72-1.62,1.42-2.41,2.15c-3.03,2.79-6.04,5.58-9.06,8.38c-0.5,0.47-0.76,0.55-1.15-0.14c-2.23-3.91-4.5-7.79-6.76-11.68 c-0.07-0.1-0.16-0.2-0.25-0.28c-0.34,0.43-0.56,0.96-0.61,1.51c-0.95,3.38-1.87,6.77-2.77,10.17c-0.02,0.58-0.49,1.04-1.07,1.04 c-0.07,0-0.14-0.01-0.21-0.02c-1.01-0.08-2.04-0.03-3.06-0.01c-0.47,0.01-0.73-0.06-0.56-0.66c2.12-7.65,4.23-15.31,6.33-22.97 c0.05-0.08,0.11-0.16,0.18-0.23c0.41,0.37,0.74,0.82,0.97,1.32c2.86,4.76,5.71,9.52,8.56,14.29c0.64,1.07,0.62,1.05,1.58,0.23 c5.16-4.4,10.32-8.8,15.5-13.18c1.04-0.88,2.07-1.77,3.2-2.73c0.02,0.12,0.03,0.25,0.03,0.38c0,0.39-0.1,0.78-0.28,1.12 c-1.96,7.19-3.95,14.37-5.9,21.56c-0.03,0.51-0.46,0.91-0.97,0.91c-0.06,0-0.12-0.01-0.17-0.02c-0.5-0.03-1.01-0.04-1.51-0.04 c-0.48,0-0.97,0.01-1.45,0.04c-0.84,0.05-0.91-0.26-0.7-0.99c0.89-3.14,1.74-6.3,2.6-9.45c0.05-0.09,0.08-0.19,0.08-0.29 C100.22,13.33,100.17,13.19,100.08,13.09L100.08,13.09L100.08,13.09z M117.86,34.99l1.48-6.19h3.37l-0.21,0.85h-2.39l-0.37,1.55 h2.39l-0.21,0.88h-2.39l-0.48,2h2.39l-0.21,0.9H117.86L117.86,34.99z M117.77,30.3c-0.22-0.24-0.47-0.42-0.75-0.54 c-0.28-0.12-0.59-0.18-0.93-0.18c-0.66,0-1.25,0.22-1.77,0.65c-0.52,0.44-0.86,1-1.02,1.69c-0.16,0.67-0.09,1.22,0.21,1.65 c0.3,0.43,0.75,0.65,1.37,0.65c0.36,0,0.71-0.06,1.07-0.2c0.35-0.13,0.71-0.33,1.07-0.59l-0.27,1.14c-0.31,0.2-0.63,0.34-0.97,0.44 c-0.33,0.1-0.68,0.14-1.04,0.14c-0.46,0-0.87-0.08-1.22-0.23c-0.35-0.15-0.64-0.38-0.87-0.69c-0.22-0.29-0.37-0.64-0.43-1.04 c-0.06-0.4-0.04-0.83,0.07-1.29c0.11-0.45,0.29-0.88,0.54-1.28c0.25-0.4,0.57-0.75,0.94-1.05c0.37-0.3,0.77-0.54,1.2-0.69 c0.42-0.16,0.86-0.23,1.31-0.23c0.36,0,0.68,0.05,0.98,0.16c0.3,0.11,0.57,0.27,0.82,0.48L117.77,30.3L117.77,30.3z M110.35,34.99 l-0.3-1.59h-2.39l-1.08,1.59h-1.03l4.46-6.44l1.38,6.44H110.35L110.35,34.99z M108.22,32.56h1.68l-0.28-1.41 c-0.01-0.09-0.03-0.19-0.04-0.31c-0.01-0.12-0.02-0.25-0.02-0.39c-0.07,0.13-0.13,0.26-0.2,0.38c-0.06,0.12-0.13,0.22-0.19,0.32 L108.22,32.56L108.22,32.56z M102.24,34.99l1.48-6.19h3.37l-0.2,0.85h-2.39l-0.37,1.54h2.39l-0.21,0.88h-2.39l-0.7,2.91H102.24 L102.24,34.99z M99.09,32.22l-0.66,2.77h-0.92l1.48-6.19h1.37c0.4,0,0.71,0.03,0.91,0.08c0.21,0.05,0.38,0.14,0.5,0.27 c0.15,0.15,0.25,0.34,0.29,0.58c0.04,0.24,0.03,0.5-0.03,0.78c-0.12,0.5-0.33,0.88-0.63,1.17c-0.3,0.28-0.69,0.45-1.16,0.5 l1.4,2.82h-1.11l-1.34-2.77H99.09L99.09,32.22z M99.34,31.44h0.18c0.52,0,0.88-0.06,1.08-0.19c0.2-0.12,0.34-0.34,0.41-0.66 c0.08-0.34,0.05-0.58-0.1-0.72c-0.15-0.14-0.47-0.21-0.96-0.21h-0.18L99.34,31.44L99.34,31.44z M93.02,34.99l1.48-6.19h3.37 l-0.21,0.85h-2.39L94.9,31.2h2.39l-0.21,0.88h-2.39l-0.48,2h2.39l-0.22,0.9H93.02L93.02,34.99z M91.95,29.65l-1.28,5.34h-0.98 l1.28-5.34h-1.6l0.2-0.85h4.18l-0.2,0.85H91.95L91.95,29.65z M81.94,34.99l1.54-6.44l2.93,3.79c0.08,0.11,0.16,0.22,0.23,0.34 c0.08,0.12,0.16,0.26,0.24,0.41l1.03-4.29h0.91l-1.54,6.43l-2.99-3.85c-0.08-0.1-0.15-0.21-0.22-0.33 c-0.07-0.12-0.13-0.24-0.19-0.36l-1.03,4.3H81.94L81.94,34.99z M79.55,34.99l1.48-6.19h0.98l-1.48,6.19H79.55L79.55,34.99z M72.31,33.75l0.87-0.37c0.01,0.28,0.09,0.49,0.26,0.63c0.16,0.14,0.4,0.22,0.71,0.22c0.29,0,0.54-0.08,0.75-0.25 s0.35-0.39,0.42-0.67c0.09-0.36-0.13-0.69-0.65-0.97c-0.07-0.04-0.13-0.07-0.17-0.09c-0.59-0.33-0.96-0.63-1.11-0.9 c-0.16-0.27-0.19-0.6-0.09-0.99c0.12-0.5,0.39-0.91,0.79-1.22c0.41-0.31,0.88-0.47,1.43-0.47c0.44,0,0.8,0.09,1.05,0.27 c0.26,0.18,0.4,0.43,0.44,0.76l-0.86,0.41c-0.07-0.2-0.17-0.34-0.3-0.43c-0.12-0.09-0.28-0.13-0.46-0.13 c-0.26,0-0.49,0.07-0.68,0.21c-0.19,0.14-0.31,0.33-0.37,0.57c-0.09,0.37,0.17,0.72,0.77,1.04c0.05,0.03,0.08,0.04,0.11,0.06 c0.53,0.28,0.87,0.56,1.03,0.83c0.16,0.27,0.19,0.61,0.09,1.01c-0.14,0.59-0.43,1.05-0.87,1.4c-0.44,0.34-0.97,0.52-1.58,0.52 c-0.51,0-0.91-0.12-1.18-0.36C72.44,34.55,72.3,34.2,72.31,33.75L72.31,33.75z M71.29,29.65l-1.28,5.34h-0.98l1.28-5.34h-1.6 l0.2-0.85h4.18l-0.2,0.85H71.29L71.29,29.65z M61.29,34.99l1.54-6.44l2.93,3.79c0.08,0.11,0.16,0.22,0.24,0.34 c0.08,0.12,0.16,0.26,0.24,0.41l1.03-4.29h0.91l-1.54,6.43l-2.99-3.85c-0.08-0.1-0.16-0.21-0.22-0.33 c-0.07-0.12-0.13-0.24-0.19-0.36l-1.03,4.3H61.29L61.29,34.99z M56.79,34.99l1.48-6.19h3.37l-0.2,0.85h-2.39l-0.37,1.55h2.39 l-0.21,0.88h-2.39l-0.48,2h2.39l-0.22,0.9H56.79L56.79,34.99z M55.16,31.93c0-0.05,0.01-0.18,0.04-0.4 c0.02-0.18,0.04-0.33,0.05-0.45c-0.06,0.14-0.13,0.28-0.21,0.42c-0.08,0.14-0.17,0.29-0.27,0.43l-2.37,3.3l-0.77-3.37 c-0.03-0.14-0.06-0.27-0.07-0.4c-0.02-0.13-0.03-0.26-0.03-0.38c-0.03,0.13-0.08,0.26-0.13,0.41c-0.05,0.14-0.11,0.29-0.19,0.45 l-1.38,3.05h-0.9l2.97-6.45l0.85,3.91c0.01,0.06,0.03,0.16,0.05,0.31c0.02,0.14,0.05,0.32,0.08,0.53c0.1-0.18,0.24-0.4,0.43-0.68 c0.05-0.07,0.09-0.13,0.11-0.17l2.67-3.9l-0.09,6.45H55.1L55.16,31.93L55.16,31.93z M45.81,34.99l0.68-2.83l-1.23-3.36h1.03 l0.76,2.1c0.02,0.05,0.04,0.12,0.06,0.21c0.02,0.09,0.05,0.18,0.07,0.28c0.06-0.1,0.12-0.19,0.19-0.28 c0.06-0.09,0.13-0.17,0.19-0.24l1.79-2.07h0.98l-2.88,3.36l-0.68,2.83H45.81L45.81,34.99z M43.37,34.99l-0.3-1.59h-2.39l-1.08,1.59 h-1.03l4.46-6.44l1.38,6.44H43.37L43.37,34.99z M41.24,32.56h1.68l-0.28-1.41c-0.01-0.09-0.03-0.19-0.04-0.31 c-0.01-0.12-0.02-0.25-0.02-0.39c-0.07,0.13-0.13,0.26-0.2,0.38c-0.07,0.12-0.13,0.22-0.19,0.32L41.24,32.56L41.24,32.56z M36.94,32.21l-0.67,2.78h-0.92l1.48-6.19h1.48c0.44,0,0.76,0.02,0.95,0.07c0.19,0.05,0.36,0.13,0.48,0.24 c0.15,0.14,0.26,0.34,0.31,0.58c0.05,0.24,0.04,0.51-0.03,0.8c-0.07,0.29-0.19,0.56-0.36,0.81s-0.36,0.44-0.58,0.58 c-0.18,0.11-0.38,0.19-0.6,0.24c-0.22,0.05-0.55,0.07-0.99,0.07H36.94L36.94,32.21z M37.19,31.39h0.25c0.54,0,0.92-0.06,1.13-0.18 c0.21-0.12,0.35-0.33,0.43-0.64c0.08-0.33,0.04-0.56-0.12-0.7c-0.16-0.13-0.5-0.2-1.02-0.2h-0.25L37.19,31.39L37.19,31.39z M26.56,34.99l1.48-6.19h1.32c0.86,0,1.45,0.04,1.78,0.13c0.33,0.09,0.6,0.24,0.81,0.45c0.28,0.27,0.46,0.63,0.54,1.05 c0.08,0.43,0.05,0.92-0.08,1.47c-0.13,0.55-0.34,1.04-0.62,1.46c-0.28,0.42-0.63,0.78-1.04,1.05c-0.31,0.21-0.65,0.36-1.01,0.45 c-0.36,0.09-0.89,0.13-1.6,0.13H26.56L26.56,34.99z M27.76,34.08h0.82c0.45,0,0.8-0.03,1.04-0.09c0.24-0.06,0.46-0.17,0.67-0.31 c0.28-0.2,0.51-0.45,0.69-0.74c0.19-0.3,0.33-0.64,0.42-1.04s0.12-0.74,0.08-1.04c-0.04-0.3-0.15-0.55-0.33-0.75 c-0.14-0.15-0.31-0.25-0.54-0.31c-0.22-0.06-0.59-0.09-1.09-0.09H28.8L27.76,34.08L27.76,34.08z M22.07,34.99l1.48-6.19h3.37 l-0.2,0.85h-2.39l-0.37,1.55h2.39l-0.21,0.88h-2.39l-0.48,2h2.39l-0.22,0.9H22.07L22.07,34.99z M19.68,34.99l1.48-6.19h0.98 l-1.48,6.19H19.68L19.68,34.99z M15.23,34.99l1.48-6.19h3.37l-0.2,0.85h-2.39l-0.37,1.54h2.39l-0.21,0.88h-2.39l-0.7,2.91H15.23 L15.23,34.99z M12.84,34.99l1.48-6.19h0.98l-1.48,6.19H12.84L12.84,34.99z M6.04,34.99l1.54-6.44l2.93,3.79 c0.08,0.11,0.16,0.22,0.24,0.34s0.16,0.26,0.24,0.41l1.03-4.29h0.91l-1.54,6.43l-2.99-3.85c-0.08-0.1-0.15-0.21-0.22-0.33 c-0.07-0.12-0.13-0.24-0.19-0.36l-1.03,4.3H6.04L6.04,34.99z M11.05,4.76c5.39,0.07,10.76-0.01,16.14-0.01 c0.95,0,1.72,0.77,1.72,1.72c0,0.24-0.05,0.48-0.15,0.71c-0.27,1.5-1.58,2.6-3.11,2.6C20.33,9.77,15,9.77,9.67,9.8 c-0.88,0-0.91-0.35-0.69-1.03c0.35-1,0.64-2.01,0.86-3.04c0.01-0.55,0.46-0.98,1.01-0.98C10.92,4.74,10.98,4.75,11.05,4.76 L11.05,4.76z M8.11,14.47c5.35,0,10.71,0.01,16.07,0.03c1.84,0.01,2.57,1.7,1.49,3.44c-0.58,0.98-1.63,1.58-2.77,1.58 c-5.25,0-10.49-0.06-15.74,0.01c-0.81,0.01-1.19-0.1-0.86-1.04c0.37-1.05,0.63-2.16,0.9-3.24C7.27,14.8,7.66,14.47,8.11,14.47 L8.11,14.47z"/></g></svg>