<svg class="svg-icon" style="width: 1em; height: 1em;vertical-align: middle;fill: currentColor;overflow: hidden;" viewBox="0 0 1024 1024" version="1.1" xmlns="http://www.w3.org/2000/svg"><path d="M512 512m-430.14 0a430.14 430.14 0 1 0 860.28 0 430.14 430.14 0 1 0-860.28 0Z" fill="#EDF3FC" /><path d="M512 2C230.79 2 2 230.786 2 511.998 2 793.214 230.79 1022 512 1022c281.214 0 510-228.786 510-510.002C1022 230.786 793.214 2 512 2z m0 1003.656c-272.2 0-493.652-221.454-493.652-493.658S239.8 18.338 512 18.338c272.204 0 493.656 221.458 493.656 493.662 0 272.202-221.452 493.656-493.656 493.656z" fill="#EDF3FC" /><path d="M440.344 244.102c0-9.118 1.216-17.95 3.466-26.358a101.374 101.374 0 0 0-43.24-9.634c-56.218 0-101.782 45.566-101.782 101.784 0 27.952 11.274 53.266 29.514 71.662h144.536a101.664 101.664 0 0 0 26.048-45.304c-34.588-16.258-58.542-51.398-58.542-92.15z" fill="#FFBE1B" /><path d="M440.358 244.666a76.044 76.044 0 0 0-39.786-11.17c-42.196 0-76.402 34.204-76.402 76.398 0 32.862 20.754 60.876 49.868 71.662h53.068c25.61-9.488 44.75-32.308 48.988-60.03-21.736-18.554-35.568-46.08-35.736-76.86z" fill="#FFE37B" /><path d="M431.372 314.662c-2.71-3.142-6.376-5.214-10.968-6.208 1.274-0.56 2.156-0.966 2.644-1.218 0.504-0.24 1.378-0.864 2.656-1.854 3.75-2.826 5.622-7.136 5.622-12.932 0-4.814-1.66-9.122-4.988-12.934-1.836-2.056-4.578-3.678-8.218-4.882a30.172 30.172 0 0 0-3.464-0.898v-9.426h-13.008v8.518h-8.714v-8.518h-13.008v8.518H365.684v14h10.61v46.126h-10.61v14H379.926v8.528h13.008v-8.528h8.714v8.528h13.008v-8.846c7.07-0.762 12.258-2.932 15.5-6.57 3.536-3.958 5.308-8.52 5.308-13.684-0.004-4.666-1.374-8.57-4.092-11.72z m-38.54-27.834h7.954c4.872 0 8.348 0.534 10.386 1.588 2.05 1.062 3.078 3.234 3.078 6.524 0 3.284-1.114 5.426-3.336 6.414-2.222 0.99-5.644 1.486-10.238 1.486h-7.844v-16.012z m22.004 44.374c-2.368 1.172-5.926 1.752-10.664 1.752h-11.34v-17.068h9.758c5.504 0 9.52 0.548 12.032 1.64 2.508 1.096 3.766 3.36 3.766 6.79-0.002 3.424-1.184 5.722-3.552 6.886z" fill="#FFFFFF" /><path d="M230.758 422.138a57.754 57.754 0 0 1-41.954-41.96l-0.882-3.526-0.882 3.526a57.746 57.746 0 0 1-41.968 41.96l-3.52 0.888 3.52 0.884a57.738 57.738 0 0 1 41.968 41.96l0.882 3.528 0.882-3.528a57.748 57.748 0 0 1 41.954-41.96l3.536-0.884-3.536-0.888zM249.32 326.462a41.262 41.262 0 0 1-29.98-29.976l-0.626-2.522-0.628 2.522a41.266 41.266 0 0 1-29.988 29.976l-2.512 0.636 2.512 0.628a41.26 41.26 0 0 1 29.988 29.978l0.628 2.522 0.626-2.522a41.26 41.26 0 0 1 29.98-29.978l2.52-0.628-2.52-0.636z" fill="#FFBE1B" /><path d="M854.856 531.956a43.452 43.452 0 0 1-31.594-31.58l-0.672-2.654-0.668 2.654a43.422 43.422 0 0 1-31.578 31.58l-2.636 0.668 2.636 0.656a43.43 43.43 0 0 1 31.578 31.594l0.668 2.642 0.672-2.642a43.464 43.464 0 0 1 31.594-31.594l2.632-0.656-2.632-0.668z" fill="#5D8EF9" /><path d="M743.532 222.944a48.336 48.336 0 0 1-35.128-35.128l-0.746-2.952-0.746 2.952a48.276 48.276 0 0 1-35.13 35.128l-2.938 0.74 2.938 0.742a48.254 48.254 0 0 1 35.13 35.124l0.746 2.952 0.746-2.952a48.312 48.312 0 0 1 35.128-35.124l2.946-0.742-2.946-0.74z" fill="#330D84" /><path d="M595.64 400.442c0-6.456 0.628-12.764 1.778-18.886h-286.36c-27.37 0-49.622 21.858-50.282 49.058 0.3 2.17 3.182 18.498 23.062 28.882 13.234 6.932 34.73 6.852 44.876 6.852h291.18c-15.112-17.76-24.254-40.76-24.254-65.906z" fill="#6857E5" /><path d="M697.418 298.652c-56.208 0-101.778 45.57-101.778 101.79 0 25.148 9.14 48.148 24.254 65.906h93.046c16.188 0 30.574 7.648 39.776 19.52 27.964-18.14 46.482-49.61 46.482-85.426 0.002-56.218-45.568-101.79-101.78-101.79z" fill="#5D8EF9" /><path d="M697.418 324.04c-42.188 0-76.394 34.206-76.394 76.402 0 28.096 15.18 52.636 37.772 65.906h54.146c6.098 0 11.942 1.086 17.35 3.072 25.742-12.288 43.53-38.556 43.53-68.978-0.002-42.196-34.204-76.402-76.404-76.402z" fill="#8AC9F9" /><path d="M697.418 349.074l-31.332 47.804 31.332 23.096 31.336-23.094z" fill="#FFFFFF" /><path d="M697.418 427.846l-31.332-24.678 31.332 48.628 31.336-48.628z" fill="#FFFFFF" /><path d="M712.942 466.348H328.714c-10.144 0-31.64 0.08-44.876-6.852-21.328-11.138-23.094-29.13-23.094-29.13V762.02c0 27.778 22.528 50.3 50.312 50.3h401.882c27.786 0 50.3-22.524 50.3-50.3V516.64c0.004-27.78-22.512-50.292-50.296-50.292z" fill="#8C7BFD" /><path d="M627.332 589.11c-12.446 0-22.532 10.092-22.532 22.544v54.23c0 12.446 10.086 22.544 22.532 22.544h135.91v-99.318h-135.91z" fill="#8AC9F9" /><path d="M648.504 616.4c-12.352 0-22.376 10.016-22.376 22.37 0 12.354 10.024 22.376 22.376 22.376 12.356 0 22.364-10.024 22.364-22.376 0-12.354-10.008-22.37-22.364-22.37z" fill="#FFE37B" /><path d="M542.132 142.326c-56.218 0-101.79 45.566-101.79 101.776 0 56.218 45.57 101.784 101.79 101.784 56.204 0 101.774-45.566 101.774-101.784 0-56.21-45.57-101.776-101.774-101.776z" fill="#330D84" /><path d="M542.132 167.708c-42.196 0-76.402 34.202-76.402 76.396 0 42.196 34.208 76.402 76.402 76.402 42.188 0 76.394-34.206 76.394-76.402 0.002-42.194-34.206-76.396-76.394-76.396z" fill="#5932AE" /><path d="M584.456 264.386v-54.342l-42.324 43.388-42.324-43.388v54.342h-12.804v13.782h26.582v-34.26l28.546 29.228 28.548-29.228v34.26h26.574v-13.782zM502.8 616.636c-13.418 0-24.646 9.496-27.344 22.12h-51.274l-38.464-43.794h-124.972v11.7h119.672l38.46 43.794h56.58c2.698 12.616 13.924 22.112 27.342 22.112 15.414 0 27.954-12.544 27.954-27.96 0-15.428-12.54-27.972-27.954-27.972z m0 44.23c-6.908 0-12.806-4.332-15.162-10.412h5.642a11.17 11.17 0 0 0 9.52 5.332 11.184 11.184 0 1 0 0-22.37 11.17 11.17 0 0 0-9.522 5.338h-5.642c2.356-6.086 8.256-10.42 15.164-10.42 8.964 0 16.254 7.296 16.254 16.27 0 8.964-7.288 16.262-16.254 16.262zM701.868 731.448l-19.496-11.7H454.586l-30.664 43.796h-50.878c-2.698-12.622-13.924-22.118-27.344-22.118-15.414 0-27.954 12.542-27.954 27.964 0 15.418 12.54 27.96 27.954 27.96 13.418 0 24.644-9.492 27.342-22.11h56.974l30.664-43.796h218.446l19.496 11.7h64.622v-11.7h-61.376zM345.7 780.578a11.17 11.17 0 0 0 9.524-5.332h5.638c-2.358 6.08-8.256 10.41-15.162 10.41-8.964 0-16.254-7.296-16.254-16.262 0-8.972 7.29-16.27 16.254-16.27 6.91 0 12.81 4.334 15.166 10.422h-5.638a11.178 11.178 0 0 0-9.526-5.34 11.184 11.184 0 0 0-11.18 11.188 11.176 11.176 0 0 0 11.178 11.184zM397.508 668.512a11.176 11.176 0 0 0-9.522 5.338h-55.874l-11.168 22.5h-60.2v11.7h67.45l11.168-22.5h48.624a11.17 11.17 0 0 0 9.522 5.332c6.176 0 11.184-5.004 11.184-11.18s-5.008-11.19-11.184-11.19zM553.496 500.826a11.17 11.17 0 0 0-9.522 5.338h-41.228l-23.398-11.7h-162.836l-11.164 22.5h-44.602v11.7h51.852l11.168-22.5h152.824l23.398 11.7h43.986a11.172 11.172 0 0 0 20.702-5.85 11.184 11.184 0 0 0-11.18-11.188zM603.094 530.744l-22.086 42.894h-94.05l-38.464-30.296h-73.77a11.176 11.176 0 0 0-20.708 5.848 11.184 11.184 0 0 0 11.184 11.184 11.17 11.17 0 0 0 9.52-5.332h69.722l38.464 30.298h105.23l22.09-42.894h153.016v-11.7h-160.148z" fill="#FFFFFF" /></svg>