<?xml version="1.0" encoding="utf-8"?>
<!-- Generator: Adobe Illustrator 16.0.0, SVG Export Plug-In . SVG Version: 6.00 Build 0)  -->
<!DOCTYPE svg PUBLIC "-//W3C//DTD SVG 1.1//EN" "http://www.w3.org/Graphics/SVG/1.1/DTD/svg11.dtd">
<svg version="1.1" id="Layer_1" xmlns="http://www.w3.org/2000/svg" xmlns:xlink="http://www.w3.org/1999/xlink" x="0px" y="0px"
	 width="26.95px" height="5.469px" viewBox="0 0.001 26.95 5.469" enable-background="new 0 0.001 26.95 5.469"
	 xml:space="preserve">
<g>
	<path fill="#F25822" d="M3.228,3.767c0,0.537-0.17,0.955-0.509,1.258C2.38,5.323,1.908,5.47,1.303,5.47
		c-0.254,0-0.493-0.027-0.719-0.088C0.357,5.32,0.163,5.236,0,5.122V3.851C0.192,3.98,0.415,4.085,0.665,4.173
		c0.25,0.086,0.477,0.131,0.679,0.131c0.171,0,0.3-0.037,0.388-0.111c0.087-0.074,0.131-0.184,0.131-0.32
		c0-0.063-0.014-0.127-0.041-0.184C1.793,3.63,1.754,3.573,1.704,3.517C1.653,3.458,1.517,3.333,1.296,3.141
		c-0.27-0.229-0.466-0.462-0.588-0.698C0.586,2.205,0.525,1.945,0.525,1.661c0-0.318,0.075-0.604,0.226-0.857
		c0.151-0.253,0.364-0.448,0.64-0.589c0.275-0.14,0.583-0.209,0.925-0.209c0.55,0,1.045,0.13,1.485,0.391l-0.468,1.08
		c-0.394-0.215-0.729-0.32-1.005-0.32c-0.147,0-0.261,0.034-0.341,0.102C1.909,1.326,1.869,1.425,1.869,1.555
		c0,0.119,0.039,0.23,0.116,0.333c0.077,0.104,0.224,0.241,0.44,0.413c0.271,0.211,0.473,0.435,0.604,0.666
		C3.162,3.199,3.228,3.464,3.228,3.767z"/>
	<path fill="#F25822" d="M5.612,5.4H4.261l0.818-4.144H3.984l0.238-1.175h3.552L7.53,1.256H6.431L5.612,5.4z"/>
	<path fill="#F25822" d="M7.174,5.4l1.067-5.318h1.372L8.545,5.4H7.174z"/>
	<path fill="#F25822" d="M12.34,1.184c-0.25,0-0.475,0.094-0.675,0.282c-0.2,0.189-0.357,0.45-0.472,0.782
		c-0.114,0.333-0.171,0.692-0.171,1.081c0,0.326,0.064,0.568,0.193,0.73c0.129,0.156,0.314,0.236,0.556,0.236
		c0.189,0,0.386-0.021,0.58-0.07c0.197-0.053,0.427-0.139,0.69-0.256v1.178c-0.468,0.219-0.976,0.322-1.521,0.322
		c-0.598,0-1.062-0.18-1.383-0.535C9.814,4.575,9.654,4.066,9.654,3.406c0-0.647,0.116-1.238,0.351-1.776
		c0.233-0.538,0.552-0.942,0.953-1.218c0.402-0.274,0.862-0.411,1.381-0.411c0.61,0,1.164,0.159,1.662,0.479L13.49,1.587
		c-0.214-0.133-0.411-0.231-0.591-0.3C12.719,1.217,12.534,1.184,12.34,1.184z"/>
	<path fill="#F25822" d="M17.791,1.675c0,0.611-0.196,1.093-0.592,1.438c-0.396,0.349-0.937,0.521-1.623,0.521h-0.297L14.932,5.4
		h-1.352l1.066-5.318h1.289c0.598,0,1.057,0.138,1.373,0.413C17.633,0.77,17.791,1.164,17.791,1.675z M15.522,2.471h0.219
		c0.209,0,0.379-0.069,0.508-0.213c0.129-0.142,0.193-0.32,0.193-0.54c0-0.143-0.043-0.258-0.125-0.346
		c-0.082-0.087-0.195-0.131-0.342-0.131H15.77L15.522,2.471z"/>
	<path fill="#F25822" d="M20.561,4.404h-1.549L18.579,5.4h-1.4l2.568-5.318h1.738L21.909,5.4h-1.314L20.561,4.404z M19.506,3.269
		h1.012l-0.06-1.542l-0.006-0.313c0-0.182,0.004-0.341,0.015-0.477c-0.056,0.208-0.125,0.408-0.212,0.604L19.506,3.269z"/>
	<path fill="#F25822" d="M24.366,2.052l1.078-1.971h1.506l-2.113,3.253L24.418,5.4h-1.354l0.416-2.064l-0.818-3.253h1.393
		L24.366,2.052z"/>
</g>
</svg>
