<?xml version="1.0" encoding="UTF-8"?>
<svg xmlns="http://www.w3.org/2000/svg" width="145.672" height="45.945" viewBox="0 0 145.672 45.945">
  <g id="Group_17388" data-name="Group 17388" transform="translate(-.001)">
    <path id="Path_24" data-name="Path 24" d="M24.489 18.5v-.514c0-5.913-2.571-8.741-6.62-8.741-4.178 0-6.684 3.021-6.684 8.677v.514c0 5.72 2.506 8.613 6.684 8.613 4.306 0 6.62-3.021 6.62-8.548M21.982.566c7.841 0 14.2 5.913 14.2 17.418v.516c0 11.569-6.363 17.354-14.269 17.354-5.077 0-8.741-2.378-10.412-5.72v16.2H0V1.466h11.5v5.013A11.863 11.863 0 0121.982.566" transform="translate(0 -.384)"></path>
    <path id="Path_25" data-name="Path 25" d="M146.184 17.868v-.514c0-5.849-2.443-8.677-6.3-8.677-4.049 0-6.427 2.892-6.427 8.741v.514c0 5.656 2.442 8.548 6.234 8.548 3.856 0 6.492-2.892 6.492-8.613m-24.424.193v-.514C121.76 6.106 128.316 0 135.836 0c5.077 0 8.1 2.186 10.026 5.592V.9h11.505v33.615h-11.505v-5.4a11.147 11.147 0 01-10.091 6.17c-7.456 0-14.012-5.592-14.012-17.225" transform="translate(-82.539)"></path>
    <path id="Path_26" data-name="Path 26" d="M262.888 21.291l6.427-17.932h10.99l-18 44.863h-10.986l5.592-14.655-13.433-30.208h12.469z" transform="translate(-165.051 -2.276)"></path>
    <path id="Path_27" data-name="Path 27" d="M359.657 36.974V29l15.3-16.968h-13.436l-.064-8.677h26.931v8.484l-14.655 16.394h15.747v8.741z" transform="translate(-243.807 -2.277)"></path>
  </g>
</svg>
